<?xml version="1.0" encoding="utf-8"?>
<!-- Generator: Adobe Illustrator 21.1.0, SVG Export Plug-In . SVG Version: 6.00 Build 0)  -->
<svg version="1.1" id="Calque_1" xmlns="http://www.w3.org/2000/svg" xmlns:xlink="http://www.w3.org/1999/xlink" x="0px" y="0px"
	 viewBox="0 0 432 432" style="enable-background:new 0 0 432 432;" xml:space="preserve">
<style type="text/css">
	.st0{fill:#EFC9AF;}
	.st1{fill:#C69C6C;}
	.st2{fill:#020203;}
	.st3{fill:#603914;}
	.st4{fill:#C1292E;}
	.st5{fill:#A67D52;}
	.st6{fill:#343434;}
	.st7{fill:#C7B29A;}
	.st8{fill:#754D24;}
	.st9{fill:#412413;}
	.st10{fill:#1B1B1B;}
	.st11{fill:#9E1460;}
	.st12{fill:#E7267A;}
	.st13{fill:#998675;}
	.st14{fill:#676767;}
	.st15{fill:#BEC1A5;}
	.st16{fill:#8D7968;}
	.st17{fill:#A6A184;}
	.st18{fill:#5B4841;}
	.st19{fill:#C1A07F;}
	.st20{fill:#72403F;}
	.st21{fill:#AA8767;}
	.st22{fill:#D6B394;}
	.st23{fill:#A34F4D;}
	.st24{fill:#B47B61;}
	.st25{fill:#E5C292;}
	.st26{fill:#B4AFA8;}
	.st27{fill:#9E9A98;}
	.st28{fill:#F39323;}
	.st29{fill:#F9B03D;}
	.st30{fill:#50B162;}
	.st31{fill:#106B40;}
	.st32{fill:#8C633A;}
	.st33{fill:#231F20;}
	.st34{fill:#2C2F32;}
	.st35{fill:#E52328;}
	.st36{fill:#C2C3C3;}
	.st37{fill:#2DABE3;}
	.st38{fill:#F9EA31;}
	.st39{fill:#E52629;}
	.st40{fill:#746458;}
	.st41{fill:#0D71B9;}
	.st42{fill:#E52521;}
	.st43{fill:#F6D9A7;}
	.st44{fill:#F4A5A6;}
	.st45{fill:#6E6F70;}
	.st46{fill:#929497;}
	.st47{fill:#F29A26;}
	.st48{fill:#E0C399;}
	.st49{fill:#F9CBCC;}
	.st50{fill:#EBDA8C;}
	.st51{fill:#30358C;}
	.st52{fill:#F6DEB8;}
	.st53{fill:#FFFFFF;}
	.st54{fill:#959FA1;}
	.st55{fill:#6A737A;}
	.st56{fill:#6CC0A9;}
	.st57{fill:#2C7179;}
	.st58{fill:#F2F2F2;}
	.st59{fill:#D83747;}
	.st60{fill:#C92C3F;}
	.st61{fill:#E67525;}
	.st62{fill:#FFD471;}
	.st63{fill:#F0832C;}
	.st64{fill:#90CDBC;}
	.st65{fill:#1E1B3C;}
	.st66{fill:#3C3C3B;}
	.st67{fill:#E94E1B;}
	.st68{fill:#BE1622;}
	.st69{fill:#665F4A;}
	.st70{fill:#3A3320;}
	.st71{fill:#13110C;}
	.st72{fill:#EDECED;}
	.st73{fill:#24211E;}
	.st74{fill:#DBD9DA;}
	.st75{fill:#D01419;}
	.st76{fill:#E1E0E0;}
	.st77{fill:#ECECEC;}
	.st78{fill:#F8F8F9;}
	.st79{fill:#6A6621;}
	.st80{fill:#89454C;}
	.st81{fill:#CBC135;}
	.st82{fill:#F8C8CB;}
	.st83{fill:#C45853;}
	.st84{fill:#729BA5;}
	.st85{fill:#F8AB00;}
	.st86{fill:#3B3835;}
	.st87{fill:#FAD3D7;}
	.st88{fill:#ECBABB;}
	.st89{fill:#F8CFB4;}
	.st90{fill:#844C16;}
	.st91{fill:#D49F61;}
	.st92{fill:#55514F;}
	.st93{fill:#B57D44;}
	.st94{fill:#FCE1E4;}
	.st95{fill:#D5D4D4;}
	.st96{fill:#B92932;}
	.st97{fill:#97C01E;}
	.st98{fill:#00AED3;}
	.st99{fill:#FFCE00;}
	.st100{fill:#E30613;}
	.st101{fill:#F28E36;}
	.st102{fill:#9B6228;}
	.st103{fill:#F6A753;}
	.st104{fill:#CB3749;}
	.st105{fill:#E4E1E1;}
	.st106{fill:#FDEA00;}
	.st107{fill:#53BFCC;}
	.st108{fill:#C2171F;}
	.st109{fill:#EA5139;}
	.st110{fill:#0098B0;}
	.st111{fill:#F28B00;}
	.st112{fill:#898584;}
	.st113{fill:#FAB84F;}
	.st114{fill:#E74310;}
	.st115{fill:#CC5E16;}
	.st116{fill:#00A33A;}
	.st117{fill:#F18600;}
	.st118{fill:#2C2523;}
	.st119{fill:#006633;}
	.st120{fill:#063141;}
	.st121{fill:#1488A9;}
	.st122{fill:#5CBCB8;}
	.st123{fill:#00472A;}
	.st124{fill:#ECC876;}
	.st125{fill:#EBA700;}
	.st126{fill:#F4E3BC;}
	.st127{fill:#BEBBBB;}
	.st128{fill:#A29F9D;}
	.st129{fill:#72C4BE;}
	.st130{fill:#DACCA3;}
	.st131{fill:#AAC5DD;}
	.st132{fill:#1B6DA2;}
	.st133{fill:#F9B233;}
	.st134{fill:#F39200;}
	.st135{fill:#5E5957;}
	.st136{fill:#BACFDD;}
	.st137{fill:#DBC6AF;}
	.st138{fill:#B17F4A;}
	.st139{fill:#467A97;}
	.st140{fill:#95C11F;}
	.st141{fill:#1D71B8;}
	.st142{fill:#2FAC66;}
	.st143{fill:#00A19A;}
	.st144{fill:#0B3958;}
	.st145{fill:#3AAA35;}
	.st146{fill:#1B4B64;}
	.st147{fill:none;}
	.st148{fill:#EBD53E;}
	.st149{fill:#EFF0F1;}
	.st150{fill:#F1BE00;}
	.st151{fill:#DFA600;}
	.st152{fill:#DAEEEE;}
	.st153{fill:#E9E7EA;}
	.st154{fill:#DE0B15;}
	.st155{fill:#AA1918;}
	.st156{fill:#76232F;}
	.st157{fill:#DC0C1F;}
	.st158{fill:#DC3015;}
	.st159{fill:#AA7F47;}
	.st160{fill:#DAAC71;}
	.st161{fill:#342D45;}
	.st162{fill:#F6F5F9;}
	.st163{fill:#1B1814;}
	.st164{fill:#E03D13;}
	.st165{fill:#BF2B17;}
	.st166{fill:#F5F0EF;}
	.st167{fill:#F19500;}
	.st168{fill:#D8870D;}
	.st169{fill:#31AD71;}
	.st170{fill:#2F7C55;}
	.st171{fill:#1A1814;}
	.st172{fill:#4B4845;}
	.st173{fill:#FAEEF0;}
	.st174{fill:#D19B09;}
	.st175{fill:#F1D7B5;}
	.st176{fill:#FCFCFD;}
	.st177{fill:#93BEC8;}
	.st178{fill:#D8D3D2;}
	.st179{fill:#4D4843;}
	.st180{fill:#4EABB8;}
	.st181{fill:#383835;}
	.st182{fill:#D5DADB;}
	.st183{fill:#9EBABB;}
	.st184{fill:#B4181C;}
	.st185{fill:#DD6A10;}
	.st186{fill:#F0F0F1;}
	.st187{fill:#753811;}
	.st188{fill:#DB0D1B;}
	.st189{fill:#DA213C;}
	.st190{fill:#BCDBB6;}
	.st191{fill:#9A9999;}
	.st192{fill:#4DA354;}
	.st193{fill:#DBBC9A;}
	.st194{fill:#A48A7B;}
	.st195{fill:#C5C2C2;}
	.st196{fill:#CC1417;}
	.st197{fill:#44403D;}
	.st198{fill:#F8D000;}
	.st199{fill:#974493;}
	.st200{fill:#F0811A;}
	.st201{fill:#58B034;}
	.st202{fill:#5BC4E9;}
	.st203{fill:#F8D71A;}
	.st204{fill:#E52921;}
	.st205{fill:#DDAE76;}
	.st206{fill:#F9DCBB;}
	.st207{fill:#CC6F22;}
	.st208{fill:#9CCDC5;}
	.st209{fill:#49998B;}
	.st210{fill:#9F3148;}
	.st211{fill:#DDA519;}
	.st212{fill:#EDC4A2;}
	.st213{fill:#5F3B17;}
	.st214{fill:#191517;}
	.st215{fill:#D9A67E;}
	.st216{fill:#C47713;}
	.st217{fill:#A91917;}
	.st218{fill:#DBC8CE;}
	.st219{fill:#9C6E80;}
	.st220{fill:#BC738E;}
	.st221{fill:#1E1E1C;}
	.st222{fill:#EAEAEA;}
	.st223{fill:#4E4D4D;}
	.st224{fill:#E7E6E6;}
	.st225{fill:#FED063;}
	.st226{fill:#FCBF0A;}
	.st227{fill:#AA5A9F;}
	.st228{fill:#833081;}
	.st229{fill:#882C87;}
	.st230{fill:#A4B639;}
	.st231{fill:#B9C95E;}
	.st232{fill:#D690BB;}
	.st233{fill:#AB6F97;}
</style>
<g>
	<g>
		<g>
			<path class="st54" d="M114.3,208.6v15.7c0,1.5-1.2,2.8-2.8,2.8H81.9c-1.5,0-2.8-1.2-2.8-2.8v-15.7c0-1.5,1.2-2.8,2.8-2.8h29.7
				C113.1,205.9,114.3,207.1,114.3,208.6z"/>
			<g>
				<rect x="79.1" y="218.1" class="st55" width="35.2" height="3.6"/>
				<rect x="79.1" y="210.7" class="st55" width="35.2" height="3.6"/>
			</g>
		</g>
		<g>
			<path class="st56" d="M105.4,284.2H88c-14.9,0-27.1-12.2-27.1-27.1V252c0-14.9,12.2-27.1,27.1-27.1h17.3
				c14.9,0,27.1,12.2,27.1,27.1v5.1C132.5,272,120.3,284.2,105.4,284.2z"/>
			<g>
				<circle class="st57" cx="96.7" cy="241.3" r="9"/>
				<circle class="st57" cx="96.7" cy="266.5" r="9"/>
			</g>
		</g>
		<g>
			<g>
				<path class="st54" d="M119.2,303.6c0,0.5,0,1.1-0.1,1.6c-0.3,5-2.3,9.5-5.4,13.1c-0.7,0.8-1.5,1.6-2.3,2.3
					c-3.6,3.1-8.1,5.1-13.1,5.4c-0.5,0-1.1,0.1-1.6,0.1c-0.5,0-1.1,0-1.6-0.1c-5-0.3-9.5-2.3-13.1-5.4c-0.8-0.7-1.6-1.5-2.3-2.3
					c-3.1-3.6-5.1-8.1-5.4-13.1c0-0.5-0.1-1.1-0.1-1.6s0-1.1,0.1-1.6c0.3-5,2.3-9.5,5.4-13.1c0.7-0.8,1.5-1.6,2.3-2.3
					c3.6-3.1,8.1-5.1,13.1-5.4c0.5,0,1.1-0.1,1.6-0.1c0.5,0,1.1,0,1.6,0.1c5,0.3,9.5,2.3,13.1,5.4c0.8,0.7,1.6,1.5,2.3,2.3
					c3.1,3.6,5.1,8.1,5.4,13.1C119.2,302.5,119.2,303.1,119.2,303.6z"/>
			</g>
			<path class="st55" d="M106.8,305.2c-0.3,1.6-0.9,3.1-1.8,4.4l8.7,8.7c-0.7,0.8-1.5,1.6-2.3,2.3l-8.7-8.7
				c-1.3,0.9-2.8,1.6-4.4,1.8V326c-0.5,0-1.1,0.1-1.6,0.1c-0.5,0-1.1,0-1.6-0.1v-12.3c-1.6-0.3-3.1-0.9-4.4-1.8l-8.7,8.7
				c-0.8-0.7-1.6-1.5-2.3-2.3l8.7-8.7c-0.9-1.3-1.6-2.8-1.8-4.4H74.3c0-0.5-0.1-1.1-0.1-1.6s0-1.1,0.1-1.6h12.3
				c0.3-1.6,0.9-3.1,1.8-4.4l-8.7-8.7c0.7-0.8,1.5-1.6,2.3-2.3l8.7,8.7c1.3-0.9,2.8-1.6,4.4-1.8v-12.3c0.5,0,1.1-0.1,1.6-0.1
				c0.5,0,1.1,0,1.6,0.1v12.3c1.6,0.3,3.1,0.9,4.4,1.8l8.7-8.7c0.8,0.7,1.6,1.5,2.3,2.3l-8.7,8.7c0.9,1.3,1.6,2.8,1.8,4.4h12.3
				c0,0.5,0.1,1.1,0.1,1.6s0,1.1-0.1,1.6H106.8z"/>
			<circle class="st6" cx="96.7" cy="303.3" r="4.9"/>
		</g>
		<g>
			<path class="st6" d="M124.2,111c-0.4-0.2-0.9-0.1-1.3,0.2c-2.6,2-5.7,3.2-9,3.5c-1.2-1.6-2.9-3.2-5.1-4.8c-2-1.5-4.2-3.1-6.6-3.7
				c-1.7-0.4-4-0.1-4.9,1.8c-0.8,1.5-0.2,3.4,1.5,4.9c3.5,3.2,8.4,4.8,13.7,4.6c0.3,0.5,0.4,1.1,0.5,1.6c0.5,2.9-2.4,5.8-5.3,7.1
				c-0.7,0.3-1.5,0.6-2.2,0.8c-0.3-1.1-0.9-2.1-1.6-2.9c-1.5-1.6-5.2-3.5-7.9-3.2c-1.2,0.2-2.1,0.8-2.7,1.8
				c-0.7,1.2-0.7,2.4-0.1,3.5c1.4,2.6,5.9,3.7,7.8,3.9c0.7,0.1,1.4,0.1,2,0c-0.2,1.2-0.6,2.3-1.3,3.3c-2.2,3-6.1,4-9.6,2.4
				c-0.4-0.2-0.9-0.2-1.3,0.1c-0.4,0.3-0.6,0.8-0.6,1.3c0,0.5,0.3,0.9,0.8,1.1c1.5,0.7,3,1,4.6,1c2.8,0,5.5-1.1,7.5-3.2
				c1.6-1.7,2.6-4.1,2.8-6.4c2.6-0.6,4.9-1.8,6.7-3.5c2.8-2.7,3.8-5.9,2.7-9c3.4-0.6,6.6-1.9,9.2-3.9c0.4-0.3,0.6-0.7,0.5-1.2
				C125,111.6,124.7,111.1,124.2,111z M110.5,114.7c-1-0.1-2-0.2-3-0.5c-2.9-0.7-5.5-2-7.1-3.7c-0.4-0.4-0.6-0.9-0.6-1.3
				c0.1-0.2,0.2-0.4,0.6-0.6c0.1-0.1,0.3-0.1,0.5-0.1c0.6,0,1.3,0.3,1.8,0.6c1.5,0.7,3.1,1.7,4.8,3
				C108.4,112.9,109.5,113.7,110.5,114.7z M102.9,127.4c-1.1,0-2.2,0-3.2-0.3c-1.1-0.3-3.8-1-3.9-2.5c0-0.6,0.2-0.8,0.3-0.8
				c0.4-0.3,1.3-0.4,3.6,0.6C101.3,125.1,102.4,126.1,102.9,127.4z"/>
			<path class="st56" d="M112.3,207.2H81.1C66.2,207.2,54,195,54,180v-18.1c0-14.9,12.2-27.1,27.1-27.1h31.2
				c14.9,0,27.1,12.2,27.1,27.1V180C139.4,195,127.2,207.2,112.3,207.2z"/>
			<g>
				<path class="st6" d="M114.9,186.6c-0.5,9.6-8.4,17.2-18.1,17.2s-17.7-7.6-18.1-17.2h6c0.5,6.3,5.7,11.3,12.1,11.3
					s11.7-5,12.1-11.3H114.9z"/>
				<g>
					<g>
						<g>
							<circle class="st54" cx="77.7" cy="165.4" r="16.8"/>
							<circle class="st6" cx="77.7" cy="165.4" r="10.8"/>
						</g>
						<g>
							
								<ellipse transform="matrix(0.546 -0.8378 0.8378 0.546 -106.6617 139.9851)" class="st58" cx="75.8" cy="168.4" rx="5.2" ry="5.8"/>
							
								<ellipse transform="matrix(0.546 -0.8378 0.8378 0.546 -98.3427 139.8746)" class="st58" cx="79.9" cy="160.7" rx="2.3" ry="3.2"/>
						</g>
					</g>
					<g>
						<g>
							<circle class="st54" cx="115.8" cy="165.5" r="16.8"/>
							<circle class="st6" cx="115.8" cy="165.5" r="10.8"/>
						</g>
						<g>
							
								<ellipse transform="matrix(0.546 -0.8378 0.8378 0.546 -88.8528 172.8469)" class="st58" cx="115" cy="168.4" rx="5.2" ry="5.8"/>
							
								<ellipse transform="matrix(0.546 -0.8378 0.8378 0.546 -80.5339 172.7365)" class="st58" cx="119.1" cy="160.7" rx="2.3" ry="3.2"/>
						</g>
					</g>
				</g>
			</g>
		</g>
	</g>
	<g>
		<g>
			<path class="st54" d="M219.7,268.4v30c0,2.9-1.2,5.3-2.8,5.3h-29.7c-1.5,0-2.8-2.4-2.8-5.3v-30c0-2.9,1.2-5.3,2.8-5.3h29.7
				C218.5,263.2,219.7,265.6,219.7,268.4z"/>
			<g>
				<rect x="184.5" y="286.7" class="st55" width="35.2" height="6.9"/>
				<rect x="184.5" y="272.3" class="st55" width="35.2" height="6.9"/>
			</g>
		</g>
		<g>
			<g>
				<g>
					<g>
						<path class="st6" d="M186.6,169.2c-0.7-8.5-3.9-16.3-9.3-22.9c-1-1.2-2.7,0.5-1.7,1.7c5,6.1,7.9,13.3,8.6,21.2
							C184.4,170.7,186.8,170.8,186.6,169.2L186.6,169.2z"/>
					</g>
					<circle class="st59" cx="172.8" cy="144.8" r="5.9"/>
				</g>
				<g>
					<g>
						<path class="st6" d="M216.9,170c3.4-7.7,8.6-14.1,15.5-19c1.3-0.9,0.1-3-1.2-2.1c-7.2,5.1-12.8,11.8-16.3,19.9
							C214.1,170.2,216.2,171.4,216.9,170L216.9,170z"/>
					</g>
					<circle class="st59" cx="234" cy="147.1" r="5.9"/>
				</g>
			</g>
			<path class="st60" d="M220.1,267.6h-36c-14.5,0-26.4-11.9-26.4-26.4v-49.8c0-14.5,11.9-26.4,26.4-26.4h36
				c14.5,0,26.4,11.9,26.4,26.4v49.8C246.5,255.7,234.6,267.6,220.1,267.6z"/>
			<g>
				<path class="st59" d="M222.6,223.7h-41c-6.6,0-12-5.4-12-12V190c0-6.6,5.4-12,12-12h41c6.6,0,12,5.4,12,12v21.7
					C234.6,218.3,229.2,223.7,222.6,223.7z"/>
				<g>
					<g>
						<g>
							<g>
								<circle class="st54" cx="187.2" cy="201.1" r="13.2"/>
								<circle class="st6" cx="187.2" cy="201.1" r="8.5"/>
							</g>
							<g>
								
									<ellipse transform="matrix(0.546 -0.8378 0.8378 0.546 -86.1254 248.0053)" class="st58" cx="185.8" cy="203.5" rx="4.1" ry="4.5"/>
								
									<ellipse transform="matrix(0.546 -0.8378 0.8378 0.546 -79.6151 247.9189)" class="st58" cx="188.9" cy="197.4" rx="1.8" ry="2.5"/>
							</g>
						</g>
						<g>
							<g>
								<circle class="st54" cx="217" cy="201.2" r="13.2"/>
								<circle class="st6" cx="217" cy="201.2" r="8.5"/>
							</g>
							<g>
								
									<ellipse transform="matrix(0.546 -0.8378 0.8378 0.546 -72.1883 273.7229)" class="st58" cx="216.4" cy="203.5" rx="4.1" ry="4.5"/>
								
									<ellipse transform="matrix(0.546 -0.8378 0.8378 0.546 -65.6779 273.6365)" class="st58" cx="219.6" cy="197.4" rx="1.8" ry="2.5"/>
							</g>
						</g>
					</g>
				</g>
			</g>
			<g>
				<g>
					<path class="st54" d="M216,238.9c-0.5,0.8-1,1.4-1.6,2.1c-0.5,0.6-1.1,1.1-1.8,1.6c-2.6,2-5.8,3-9.2,3.4
						c-0.8,0.1-1.6,0.1-2.4,0.1c-3.4-0.1-6.8-0.9-9.7-2.5c-0.7-0.4-1.4-0.8-2-1.3c-0.7-0.5-1.4-1.2-2.1-1.8
						c-3.2-3.4,1.9-8.5,5.1-5.1c0.3,0.3,0.6,0.6,0.9,0.8c0.6,0.5,1.3,0.9,2.1,1.3c1.6,0.8,3.5,1.3,5.3,1.4c0.8,0.1,1.6,0.1,2.4,0
						c1.7-0.1,3.3-0.6,4.6-1.4c0.7-0.4,1.3-1,1.8-1.6c0.1-0.2,0.2-0.3,0.4-0.5C212.3,231.3,218.5,235,216,238.9z"/>
				</g>
				<g>
					<g>
						<path class="st55" d="M195.3,237.4c-1.3,2.1-2.6,4.1-4,6.1c-0.7-0.4-1.4-0.8-2-1.3c1.4-2,2.7-4,4-6.1
							C193.9,236.6,194.5,237,195.3,237.4z"/>
					</g>
					<g>
						<path class="st55" d="M203.4,245.9c-0.8,0.1-1.6,0.1-2.4,0.1c-0.1-2.4-0.2-4.8-0.4-7.2c0.8,0.1,1.6,0.1,2.4,0
							C203.2,241.2,203.4,243.5,203.4,245.9z"/>
					</g>
					<g>
						<path class="st55" d="M214.4,241c-0.5,0.6-1.1,1.1-1.8,1.6c-1.6-1.8-3.3-3.5-5-5.2c0.7-0.4,1.3-1,1.8-1.6
							C211.1,237.4,212.8,239.2,214.4,241z"/>
					</g>
				</g>
			</g>
		</g>
		<g>
			<path class="st59" d="M220.7,312.3h-37c-4,0-7.4-3.3-7.4-7.4v-0.2c0-4,3.3-7.4,7.4-7.4h37c4,0,7.4,3.3,7.4,7.4v0.2
				C228,309,224.7,312.3,220.7,312.3z"/>
			<g>
				<g>
					<g>
						<path class="st54" d="M185.3,308.9c0,0.4,0,0.8,0,1.1c-0.2,3.5-1.6,6.7-3.8,9.2c-0.5,0.6-1,1.1-1.6,1.6
							c-2.5,2.2-5.7,3.6-9.2,3.8c-0.4,0-0.7,0-1.1,0s-0.8,0-1.1,0c-3.5-0.2-6.7-1.6-9.2-3.8c-0.6-0.5-1.1-1-1.6-1.6
							c-2.2-2.5-3.6-5.7-3.8-9.2c0-0.4,0-0.7,0-1.1s0-0.8,0-1.1c0.2-3.5,1.6-6.7,3.8-9.2c0.5-0.6,1-1.1,1.6-1.6
							c2.5-2.2,5.7-3.6,9.2-3.8c0.4,0,0.7,0,1.1,0s0.8,0,1.1,0c3.5,0.2,6.7,1.6,9.2,3.8c0.6,0.5,1.1,1,1.6,1.6
							c2.2,2.5,3.6,5.7,3.8,9.2C185.3,308.1,185.3,308.5,185.3,308.9z"/>
					</g>
					<path class="st55" d="M176.7,310c-0.2,1.1-0.6,2.2-1.3,3.1l6.1,6.1c-0.5,0.6-1,1.1-1.6,1.6l-6.1-6.1c-0.9,0.6-1.9,1.1-3.1,1.3
						v8.6c-0.4,0-0.7,0-1.1,0s-0.8,0-1.1,0v-8.6c-1.1-0.2-2.2-0.6-3.1-1.3l-6.1,6.1c-0.6-0.5-1.1-1-1.6-1.6l6.1-6.1
						c-0.6-0.9-1.1-1.9-1.3-3.1h-8.6c0-0.4,0-0.7,0-1.1s0-0.8,0-1.1h8.6c0.2-1.1,0.6-2.2,1.3-3.1l-6.1-6.1c0.5-0.6,1-1.1,1.6-1.6
						l6.1,6.1c0.9-0.6,1.9-1.1,3.1-1.3v-8.6c0.4,0,0.7,0,1.1,0s0.8,0,1.1,0v8.6c1.1,0.2,2.2,0.6,3.1,1.3l6.1-6.1
						c0.6,0.5,1.1,1,1.6,1.6l-6.1,6.1c0.6,0.9,1.1,1.9,1.3,3.1h8.6c0,0.4,0,0.7,0,1.1s0,0.8,0,1.1H176.7z"/>
					<circle class="st6" cx="169.6" cy="308.6" r="3.4"/>
				</g>
				<g>
					<g>
						<path class="st54" d="M250.3,308.9c0,0.4,0,0.8,0,1.1c-0.2,3.5-1.6,6.7-3.8,9.2c-0.5,0.6-1,1.1-1.6,1.6
							c-2.5,2.2-5.7,3.6-9.2,3.8c-0.4,0-0.7,0-1.1,0s-0.8,0-1.1,0c-3.5-0.2-6.7-1.6-9.2-3.8c-0.6-0.5-1.1-1-1.6-1.6
							c-2.2-2.5-3.6-5.7-3.8-9.2c0-0.4,0-0.7,0-1.1s0-0.8,0-1.1c0.2-3.5,1.6-6.7,3.8-9.2c0.5-0.6,1-1.1,1.6-1.6
							c2.5-2.2,5.7-3.6,9.2-3.8c0.4,0,0.7,0,1.1,0s0.8,0,1.1,0c3.5,0.2,6.7,1.6,9.2,3.8c0.6,0.5,1.1,1,1.6,1.6
							c2.2,2.5,3.6,5.7,3.8,9.2C250.3,308.1,250.3,308.5,250.3,308.9z"/>
					</g>
					<path class="st55" d="M241.6,310c-0.2,1.1-0.6,2.2-1.3,3.1l6.1,6.1c-0.5,0.6-1,1.1-1.6,1.6l-6.1-6.1c-0.9,0.6-1.9,1.1-3.1,1.3
						v8.6c-0.4,0-0.7,0-1.1,0s-0.8,0-1.1,0v-8.6c-1.1-0.2-2.2-0.6-3.1-1.3l-6.1,6.1c-0.6-0.5-1.1-1-1.6-1.6l6.1-6.1
						c-0.6-0.9-1.1-1.9-1.3-3.1h-8.6c0-0.4,0-0.7,0-1.1s0-0.8,0-1.1h8.6c0.2-1.1,0.6-2.2,1.3-3.1l-6.1-6.1c0.5-0.6,1-1.1,1.6-1.6
						l6.1,6.1c0.9-0.6,1.9-1.1,3.1-1.3v-8.6c0.4,0,0.7,0,1.1,0s0.8,0,1.1,0v8.6c1.1,0.2,2.2,0.6,3.1,1.3l6.1-6.1
						c0.6,0.5,1.1,1,1.6,1.6l-6.1,6.1c0.6,0.9,1.1,1.9,1.3,3.1h8.6c0,0.4,0,0.7,0,1.1s0,0.8,0,1.1H241.6z"/>
					<circle class="st6" cx="234.6" cy="308.6" r="3.4"/>
				</g>
			</g>
		</g>
	</g>
	<g>
		<g>
			<path class="st54" d="M377.1,307v6.2c0,4.4-3.6,8-8,8H274c-4.4,0-8-3.6-8-8V307c0-4.4,3.6-8,8-8h95.1
				C373.5,299,377.1,302.6,377.1,307z"/>
			<g>
				<rect x="274.1" y="299" class="st55" width="5.8" height="22.2"/>
				<rect x="288.9" y="299" class="st55" width="5.8" height="22.2"/>
				<rect x="303.2" y="299" class="st55" width="5.8" height="22.2"/>
				<rect x="319" y="299" class="st55" width="5.8" height="22.2"/>
				<rect x="333.9" y="299" class="st55" width="5.8" height="22.2"/>
				<rect x="348.2" y="299" class="st55" width="5.8" height="22.2"/>
				<rect x="362.8" y="299" class="st55" width="5.8" height="22.2"/>
			</g>
		</g>
		<g>
			<g>
				<g>
					<path class="st6" d="M317.4,167c7.9-23.7,35.6-28,56.9-23c1.5,0.4,2.1-2,0.6-2.3c-12.7-3-26.4-3.4-38.5,1.9
						c-9.9,4.4-17.9,12.4-21.4,22.8C314.6,167.8,316.9,168.4,317.4,167L317.4,167z"/>
				</g>
				<g>
					
						<ellipse transform="matrix(0.4515 -0.8923 0.8923 0.4515 44.5241 374.4067)" class="st61" cx="326.8" cy="151" rx="4.7" ry="10.6"/>
					
						<ellipse transform="matrix(0.9771 -0.2126 0.2126 0.9771 -21.7373 77.5491)" class="st61" cx="349.7" cy="139.8" rx="4.1" ry="9.2"/>
					
						<ellipse transform="matrix(0.3793 -0.9253 0.9253 0.3793 101.1183 434.7945)" class="st61" cx="374.6" cy="142" rx="6.1" ry="2.7"/>
				</g>
			</g>
			<path class="st62" d="M351.5,294.6h-60c-6.6,0-12-5.4-12-12v-112c0-6.6,5.4-12,12-12h60c6.6,0,12,5.4,12,12v112
				C363.5,289.2,358.1,294.6,351.5,294.6z"/>
			<g>
				<g>
					<g>
						<g>
							<g>
								<circle class="st54" cx="306.7" cy="188.1" r="13.2"/>
								<circle class="st6" cx="306.7" cy="188.1" r="8.5"/>
							</g>
							<g>
								
									<ellipse transform="matrix(0.546 -0.8378 0.8378 0.546 -20.9772 342.1827)" class="st58" cx="305.2" cy="190.4" rx="4.1" ry="4.5"/>
								
									<ellipse transform="matrix(0.546 -0.8378 0.8378 0.546 -14.4668 342.0963)" class="st58" cx="308.4" cy="184.4" rx="1.8" ry="2.5"/>
							</g>
						</g>
						<g>
							<g>
								<circle class="st54" cx="336.5" cy="188.2" r="13.2"/>
								<circle class="st6" cx="336.5" cy="188.2" r="8.5"/>
							</g>
							<g>
								
									<ellipse transform="matrix(0.546 -0.8378 0.8378 0.546 -7.0401 367.9003)" class="st58" cx="335.9" cy="190.4" rx="4.1" ry="4.5"/>
								
									<ellipse transform="matrix(0.546 -0.8378 0.8378 0.546 -0.5297 367.8139)" class="st58" cx="339.1" cy="184.4" rx="1.8" ry="2.5"/>
							</g>
						</g>
					</g>
				</g>
				<path class="st54" d="M339.7,206.1c-0.5,9.6-8.4,17.2-18.1,17.2c-9.7,0-17.7-7.6-18.1-17.2h6c0.5,6.3,5.7,11.3,12.1,11.3
					c6.4,0,11.7-5,12.1-11.3H339.7z"/>
			</g>
			<g>
				<g>
					<path class="st63" d="M341,282.4h-38.8c-6.6,0-12-5.4-12-12v-22.1c0-6.6,5.4-12,12-12H341c6.6,0,12,5.4,12,12v22.1
						C353,277,347.6,282.4,341,282.4z"/>
					<g>
						<path class="st61" d="M301.5,276h-0.1c-2.4,0-4.3-1.9-4.3-4.3v-25.3c0-2.4,1.9-4.3,4.3-4.3h0.1c2.4,0,4.3,1.9,4.3,4.3v25.3
							C305.8,274,303.8,276,301.5,276z"/>
						<path class="st61" d="M315.1,276h-0.1c-2.4,0-4.3-1.9-4.3-4.3v-25.3c0-2.4,1.9-4.3,4.3-4.3h0.1c2.4,0,4.3,1.9,4.3,4.3v25.3
							C319.4,274,317.4,276,315.1,276z"/>
						<path class="st61" d="M328.8,276h-0.1c-2.4,0-4.3-1.9-4.3-4.3v-25.3c0-2.4,1.9-4.3,4.3-4.3h0.1c2.4,0,4.3,1.9,4.3,4.3v25.3
							C333.1,274,331.1,276,328.8,276z"/>
						<path class="st61" d="M341.8,276h-0.1c-2.4,0-4.3-1.9-4.3-4.3v-25.3c0-2.4,1.9-4.3,4.3-4.3h0.1c2.4,0,4.3,1.9,4.3,4.3v25.3
							C346.1,274,344.2,276,341.8,276z"/>
					</g>
				</g>
				<path class="st61" d="M340.6,293.2h-38.1c-5.3,0-9.6,2.2-9.6,4.8s4.3,4.8,9.6,4.8h38.1c5.3,0,9.6-2.2,9.6-4.8
					S345.9,293.2,340.6,293.2z"/>
			</g>
		</g>
	</g>
</g>
</svg>
